<svg width="900" height="1000" viewBox="0 0 900 1000" fill="none" xmlns="http://www.w3.org/2000/svg">
<rect width="900" height="1000" rx="56" fill="url(#bg)"/>
<circle cx="706" cy="173" r="110" fill="#C7D2FE" fill-opacity="0.6"/>
<circle cx="168" cy="810" r="120" fill="#A5F3FC" fill-opacity="0.65"/>
<rect x="120" y="130" width="660" height="760" rx="44" fill="white" fill-opacity="0.88"/>
<rect x="170" y="195" width="560" height="650" rx="34" fill="#EFF6FF"/>
<rect x="210" y="560" width="480" height="230" rx="28" fill="white"/>
<circle cx="450" cy="360" r="132" fill="#F8D6C0"/>
<path d="M337 322C337 253.412 392.412 198 461 198C529.588 198 585 253.412 585 322V389H337V322Z" fill="#151B2B"/>
<path d="M388 428C388 387.131 421.131 354 462 354C502.869 354 536 387.131 536 428V498H388V428Z" fill="#E7B791"/>
<rect x="318" y="506" width="288" height="167" rx="84" fill="#4F46E5"/>
<rect x="286" y="704" width="354" height="22" rx="11" fill="#D9E4F6"/>
<rect x="286" y="746" width="286" height="18" rx="9" fill="#E6EDF8"/>
<g filter="url(#shadow)">
<rect x="564" y="114" width="150" height="150" rx="30" fill="url(#card)"/>
<circle cx="639" cy="188" r="32" fill="white" fill-opacity="0.92"/>
<path d="M620 188L634 202L659 177" stroke="#4F46E5" stroke-width="12" stroke-linecap="round" stroke-linejoin="round"/>
</g>
<g filter="url(#shadow)">
<rect x="102" y="648" width="170" height="170" rx="32" fill="url(#card2)"/>
<rect x="140" y="689" width="92" height="22" rx="11" fill="white" fill-opacity="0.9"/>
<rect x="140" y="729" width="60" height="22" rx="11" fill="white" fill-opacity="0.65"/>
<rect x="208" y="729" width="24" height="22" rx="11" fill="#7DD3FC"/>
</g>
<defs>
<linearGradient id="bg" x1="0" y1="0" x2="900" y2="1000" gradientUnits="userSpaceOnUse">
<stop stop-color="#EEF2FF"/>
<stop offset="1" stop-color="#ECFEFF"/>
</linearGradient>
<linearGradient id="card" x1="564" y1="114" x2="714" y2="264" gradientUnits="userSpaceOnUse">
<stop stop-color="#4F46E5"/>
<stop offset="1" stop-color="#06B6D4"/>
</linearGradient>
<linearGradient id="card2" x1="102" y1="648" x2="272" y2="818" gradientUnits="userSpaceOnUse">
<stop stop-color="#0F172A"/>
<stop offset="1" stop-color="#334155"/>
</linearGradient>
<filter id="shadow" x="62" y="74" width="692" height="784" filterUnits="userSpaceOnUse" color-interpolation-filters="sRGB">
<feFlood flood-opacity="0" result="BackgroundImageFix"/>
<feColorMatrix in="SourceAlpha" type="matrix" values="0 0 0 0 0 0 0 0 0 0 0 0 0 0 0 0 0 0 127 0" result="hardAlpha"/>
<feOffset dy="14"/>
<feGaussianBlur stdDeviation="20"/>
<feComposite in2="hardAlpha" operator="out"/>
<feColorMatrix type="matrix" values="0 0 0 0 0.105882 0 0 0 0 0.137255 0 0 0 0 0.192157 0 0 0 0.16 0"/>
<feBlend mode="normal" in2="BackgroundImageFix" result="effect1_dropShadow_1_2"/>
<feBlend mode="normal" in="SourceGraphic" in2="effect1_dropShadow_1_2" result="shape"/>
</filter>
</defs>
</svg>
